<?xml version="1.0" encoding="utf-8"?><svg viewBox="0 0 50 50" xmlns="http://www.w3.org/2000/svg" xmlns:xlink="http://www.w3.org/1999/xlink"><style>:root>svg{display:none}:root>svg:target{display:block}</style><svg viewBox="0 0 32 32" id="instagram" xmlns="http://www.w3.org/2000/svg"><path d="M11.469 5C7.918 5 5 7.914 5 11.469v9.062C5 24.082 7.914 27 11.469 27h9.062C24.082 27 27 24.086 27 20.531V11.47C27 7.918 24.086 5 20.531 5zm0 2h9.062A4.463 4.463 0 0125 11.469v9.062A4.463 4.463 0 0120.531 25H11.47A4.463 4.463 0 017 20.531V11.47A4.463 4.463 0 0111.469 7zm10.437 2.188a.902.902 0 00-.906.906c0 .504.402.906.906.906a.902.902 0 00.907-.906.902.902 0 00-.907-.906zM16 10c-3.3 0-6 2.7-6 6s2.7 6 6 6 6-2.7 6-6-2.7-6-6-6zm0 2c2.223 0 4 1.777 4 4s-1.777 4-4 4-4-1.777-4-4 1.777-4 4-4z"/></svg><svg viewBox="0 0 24 24" id="telegram" xmlns="http://www.w3.org/2000/svg"><path d="M20.303 2.984a2.437 2.437 0 00-.787.188c-.216.085-.988.41-2.22.926l-4.599 1.931C9.221 7.491 5.314 9.136 3.313 9.98c-.07.028-.348.114-.657.35-.309.235-.652.747-.652 1.308 0 .452.226.912.498 1.175.272.264.548.387.78.479v-.002c.78.31 3.109 1.243 3.663 1.465.197.59 1.042 3.113 1.242 3.748h-.001c.142.45.28.742.472.986a1.168 1.168 0 00.526.405l.025.007-.023-.005c.017.007.033.017.05.023.03.01.05.01.088.018.137.042.274.07.4.07.544 0 .878-.295.878-.295l.021-.016 2.348-1.986 2.875 2.66c.052.074.464.631 1.416.631.568 0 1.017-.281 1.304-.576.288-.295.467-.597.547-1.006l.002-.002c.064-.33 2.817-14.15 2.817-14.15l-.006.023c.085-.382.11-.752.01-1.129a1.62 1.62 0 00-.704-.937 1.65 1.65 0 00-.93-.239zm-.395 2.19c-.109.546-2.574 12.932-2.726 13.709l-4.153-3.842-2.806 2.373.777-3.039s5.363-5.428 5.686-5.744c.26-.253.314-.342.314-.43 0-.117-.06-.201-.2-.201-.124 0-.294.12-.384.176-1.144.713-6.015 3.489-8.41 4.851-.144-.057-2.309-.927-3.475-1.392a44934.035 44934.035 0 0113.54-5.694c1.037-.435 1.579-.66 1.837-.767zm-2.756 13.851h.002l-.002.006c.002-.006 0 0 0-.006z"/></svg><svg viewBox="0 0 32 32" id="vk" xmlns="http://www.w3.org/2000/svg"><path d="M9.082 5A4.098 4.098 0 005 9.082v13.836A4.098 4.098 0 009.082 27h13.836A4.098 4.098 0 0027 22.918V9.082A4.098 4.098 0 0022.918 5zm0 2h13.836A2.07 2.07 0 0125 9.082v13.836A2.07 2.07 0 0122.918 25H9.082A2.069 2.069 0 017 22.918V9.082A2.07 2.07 0 019.082 7zm6.637 5.23c-.735-.007-1.36 0-1.711.172-.235.114-.414.371-.305.383.137.02.445.086.61.309.21.285.203.93.203.93s.117 1.773-.286 1.996c-.277.152-.656-.157-1.476-1.567-.418-.726-.734-1.527-.734-1.527s-.06-.149-.168-.227c-.133-.097-.317-.129-.317-.129l-1.957.012s-.293.012-.398.137c-.098.117-.008.347-.008.347s1.531 3.582 3.265 5.387C14.027 20.11 15.832 20 15.832 20h.82s.246-.027.371-.16c.118-.125.114-.36.114-.36s-.016-1.097.492-1.261c.504-.157 1.144 1.062 1.828 1.531.52.355.914.277.914.277L22.2 20s.953-.059.5-.813c-.035-.058-.262-.554-1.355-1.57-1.149-1.062-.996-.89.386-2.73.84-1.121 1.176-1.805 1.07-2.102-.1-.277-.718-.203-.718-.203l-2.059.012s-.152-.02-.265.047a.576.576 0 00-.18.222s-.328.867-.762 1.606c-.914 1.554-1.285 1.64-1.433 1.543-.348-.227-.262-.907-.262-1.387 0-1.512.23-2.137-.445-2.3-.223-.055-.387-.09-.957-.095z"/></svg><svg viewBox="0 0 32 32" fill-rule="evenodd" id="whatsapp" xmlns="http://www.w3.org/2000/svg"><path d="M24.504 7.504A11.875 11.875 0 0016.05 4C9.465 4 4.1 9.36 4.1 15.945a11.882 11.882 0 001.594 5.973L4 28.109l6.336-1.664a11.958 11.958 0 005.71 1.457h.005c6.586 0 11.945-5.359 11.949-11.949 0-3.191-1.242-6.191-3.496-8.45zM16.05 25.883h-.004a9.93 9.93 0 01-5.055-1.383l-.363-.215-3.762.985 1.004-3.665-.234-.375a9.904 9.904 0 01-1.52-5.285c0-5.472 4.457-9.925 9.938-9.925a9.863 9.863 0 017.02 2.91 9.875 9.875 0 012.905 7.023c0 5.477-4.457 9.93-9.93 9.93zm5.445-7.438c-.297-.148-1.766-.87-2.039-.968-.273-.102-.473-.149-.672.148-.2.3-.77.973-.945 1.172-.172.195-.348.223-.645.074-.3-.148-1.261-.465-2.402-1.484-.887-.79-1.488-1.77-1.66-2.067-.176-.3-.02-.46.129-.61.136-.132.3-.347.449-.523.148-.171.2-.296.3-.496.098-.199.048-.375-.027-.523-.074-.148-.671-1.621-.921-2.219-.243-.582-.489-.5-.672-.511-.172-.008-.371-.008-.57-.008-.2 0-.524.074-.798.375-.273.297-1.043 1.02-1.043 2.488 0 1.469 1.07 2.89 1.22 3.09.148.195 2.105 3.21 5.1 4.504a16.85 16.85 0 001.7.629c.715.226 1.367.195 1.883.12.574-.085 1.765-.722 2.015-1.421.247-.695.247-1.293.172-1.418-.074-.125-.273-.2-.574-.352z"/></svg></svg>